<?xml version="1.0" standalone="no"?>
<!DOCTYPE svg PUBLIC "-//W3C//DTD SVG 20010904//EN"
 "http://www.w3.org/TR/2001/REC-SVG-20010904/DTD/svg10.dtd">
<svg version="1.0" xmlns="http://www.w3.org/2000/svg"
 width="388.000000pt" height="388.000000pt" viewBox="0 0 388.000000 388.000000"
 preserveAspectRatio="xMidYMid meet">
<metadata>
Created by potrace 1.14, written by Peter Selinger 2001-2017
</metadata>
<g transform="translate(0.000000,388.000000) scale(0.100000,-0.100000)"
fill="#000000" stroke="none">
<path d="M1881 3869 c-92 -18 -176 -90 -206 -178 -44 -128 14 -270 135 -334
49 -26 63 -28 130 -25 86 4 131 23 186 76 131 127 96 354 -66 434 -64 31 -117
39 -179 27z"/>
<path d="M1457 2873 c-24 -38 -53 -85 -65 -105 l-23 -37 73 -40 c68 -38 210
-91 244 -91 12 0 14 -157 14 -1185 l0 -1185 -125 0 -125 0 0 -115 0 -115 495
0 495 0 0 115 0 115 -125 0 -125 0 0 1183 0 1182 83 28 c89 31 219 96 224 113
3 8 -95 152 -127 187 -3 4 -40 -8 -81 -27 -204 -96 -519 -92 -719 9 l-70 35
-43 -67z"/>
</g>
</svg>
